<svg width="375" height="375" viewBox="0 0 375 375" xmlns="http://www.w3.org/2000/svg">
    <g fill="none" fill-rule="evenodd">
        <path d="M105.517 42.17c-1.274.479-2.652.74-4.093.74-6.423 0-11.63-5.206-11.63-11.629 0-1.083.15-2.133.427-3.128l5.868-3.813c.786 6.415 6.141 11.416 12.711 11.65l-3.283 6.18z" fill="#F7D02E"/>
        <path d="M104.823 42.136c-4.829 1.512-10.2-.962-12.683-5.279a11.686 11.686 0 0 1-1.45-7.267c.047-.365.2-.756.202-1.12-.003.444.102-.299.025-.374.105-.106.33-.202.439-.273l1.834-1.192 2.21-1.435c1.103 6.137 6.327 10.66 12.536 11.079l-3.113 5.86m4.5-6.46c-6.37-.273-11.616-5.271-12.431-11.55-.044-.34-1.267.11-1.413.205l-3.397 2.206-2.016 1.31c-.138.09-.305.171-.43.28-.374.323-.4.931-.48 1.414-.892 5.334 2.101 10.73 7.111 12.778 2.98 1.219 6.3 1.136 9.315.088.272-.062.614-.173.725-.382l3.283-6.18c.082-.154-.192-.165-.266-.168" fill="#000"/>
        <path d="M317.3 111.057a11.609 11.609 0 0 0 2.928 2.954c5.26 3.684 12.512 2.406 16.196-2.856a11.635 11.635 0 0 0 1.446-2.807l-2.62-6.489c-4.323 4.804-11.58 5.829-17.095 2.252l-.855 6.946z" fill="#FFF"/>
        <path d="M317.888 111.427c3.088 4.008 8.907 5.062 13.417 2.95a11.686 11.686 0 0 0 5.356-5.12c.171-.326.27-.735.477-1.034-.252.366.088-.303.194-.32-.026-.148-.154-.356-.203-.476l-.819-2.028-.987-2.444c-4.423 4.395-11.297 5.103-16.623 1.885l-.812 6.587m.019-7.874c5.374 3.43 12.54 2.345 16.808-2.33.232-.254.975.816 1.04.978l1.517 3.755.9 2.23c.062.152.152.315.192.475.12.48-.207.992-.418 1.433-2.329 4.882-7.875 7.585-13.154 6.39-3.14-.71-5.812-2.683-7.68-5.271-.188-.207-.404-.494-.375-.729l.855-6.946c.021-.172.251-.025.315.015" fill="#000"/>
        <path d="M317.3 258.057a11.609 11.609 0 0 0 2.928 2.954c5.26 3.684 12.512 2.406 16.196-2.856a11.635 11.635 0 0 0 1.446-2.807l-2.62-6.489c-4.323 4.804-11.58 5.829-17.095 2.252l-.855 6.946z" fill="#FFF"/>
        <path d="M317.888 258.427c3.088 4.008 8.907 5.062 13.417 2.95a11.686 11.686 0 0 0 5.356-5.12c.171-.326.27-.735.477-1.034-.252.366.088-.303.194-.32-.026-.148-.154-.356-.203-.476l-.819-2.028-.987-2.444c-4.423 4.395-11.297 5.103-16.623 1.885l-.812 6.587m.019-7.874c5.374 3.43 12.54 2.345 16.808-2.33.232-.254.975.816 1.04.978l1.517 3.755.9 2.23c.062.152.152.315.192.475.12.48-.207.992-.418 1.433-2.329 4.882-7.875 7.585-13.154 6.39-3.14-.71-5.812-2.683-7.68-5.271-.188-.207-.404-.494-.375-.729l.855-6.946c.021-.172.251-.025.315.015" fill="#000"/>
        <path d="M364.754 187.609a11.609 11.609 0 0 0 2.954-2.928c3.684-5.261 2.405-12.513-2.856-16.197a11.635 11.635 0 0 0-2.807-1.445l-6.49 2.62c4.804 4.323 5.83 11.579 2.253 17.094l6.946.856z" fill="#8CFFFA"/>
        <path d="M365.124 187.02c4.007-3.088 5.062-8.906 2.95-13.416a11.686 11.686 0 0 0-5.121-5.356c-.326-.172-.734-.27-1.034-.478.366.253-.303-.088-.32-.193-.148.025-.355.154-.476.202l-2.028.82-2.443.986c4.394 4.424 5.102 11.297 1.885 16.624l6.587.811m-7.874-.018c3.43-5.375 2.345-12.54-2.331-16.809-.253-.23.816-.975.978-1.04l3.756-1.516 2.23-.9c.152-.062.314-.153.474-.193.48-.12.993.208 1.434.419 4.88 2.328 7.584 7.874 6.389 13.154-.71 3.14-2.682 5.812-5.271 7.68-.206.187-.494.404-.728.375l-6.946-.855c-.173-.022-.025-.252.015-.315" fill="#000"/>
        <g>
            <path d="M357.213 307.78a11.609 11.609 0 0 1-4.1-.705c-6.035-2.196-9.147-8.87-6.95-14.905.37-1.019.87-1.954 1.47-2.794l6.819-1.576c-1.456 6.296 1.867 12.828 7.96 15.294l-5.2 4.685z" fill="#8CFFFA"/>
            <path d="M356.572 307.51c-5.054-.231-9.255-4.393-10.112-9.299a11.686 11.686 0 0 1 1.123-7.324c.169-.327.446-.643.573-.984-.155.417.197-.246.15-.342.136-.064.38-.078.507-.107l2.131-.493 2.568-.593c-1.063 6.144 2.3 12.181 7.99 14.699l-4.93 4.443m6.44-4.532c-5.893-2.435-9.114-8.927-7.732-15.105.075-.335-1.228-.33-1.398-.291l-3.946.911-2.343.541c-.16.038-.345.057-.5.116-.461.176-.693.739-.934 1.165-2.662 4.707-1.696 10.8 2.312 14.44 2.382 2.164 5.53 3.222 8.723 3.268.276.035.636.047.811-.111l5.2-4.685c.128-.116-.124-.22-.193-.249" fill="#000"/>
        </g>
        <g>
            <path d="M19.088 80.042a11.609 11.609 0 0 1 4.093-.74c6.423 0 11.63 5.206 11.63 11.629 0 1.084-.15 2.133-.427 3.128l-5.868 3.813c-.786-6.415-6.141-11.416-12.711-11.65l3.283-6.18z" fill="#8CFFFA"/>
            <path d="M19.782 80.076c4.829-1.512 10.2.962 12.683 5.279a11.686 11.686 0 0 1 1.45 7.267c-.047.365-.2.757-.202 1.12.003-.444-.102.299-.025.374-.105.106-.33.202-.439.273l-1.834 1.192-2.21 1.436c-1.103-6.138-6.327-10.66-12.536-11.08l3.113-5.86m-4.5 6.46c6.37.273 11.616 5.271 12.431 11.55.044.34 1.267-.11 1.413-.205l3.397-2.206 2.016-1.31c.138-.09.305-.171.43-.279.374-.324.4-.932.48-1.414.892-5.334-2.101-10.73-7.111-12.779-2.98-1.219-6.3-1.136-9.315-.087-.272.061-.614.172-.725.381l-3.283 6.18c-.082.154.192.165.266.169" fill="#000"/>
        </g>
        <g>
            <path d="M42.088 173.042a11.609 11.609 0 0 1 4.093-.74c6.423 0 11.63 5.206 11.63 11.629 0 1.084-.15 2.133-.427 3.128l-5.868 3.813c-.786-6.415-6.141-11.416-12.711-11.65l3.283-6.18z" fill="#FFF"/>
            <path d="M42.782 173.076c4.829-1.512 10.2.962 12.683 5.279a11.686 11.686 0 0 1 1.45 7.267c-.047.365-.2.757-.202 1.12.003-.444-.102.299-.025.374-.105.106-.33.202-.439.273l-1.834 1.192-2.21 1.436c-1.103-6.138-6.327-10.66-12.536-11.08l3.113-5.86m-4.5 6.46c6.37.273 11.616 5.271 12.431 11.55.044.34 1.267-.11 1.413-.205l3.397-2.206 2.016-1.31c.138-.09.305-.171.43-.279.374-.324.4-.932.48-1.414.892-5.334-2.101-10.73-7.111-12.779-2.98-1.219-6.3-1.136-9.315-.087-.272.061-.614.172-.725.381l-3.283 6.18c-.082.154.192.165.266.169" fill="#000"/>
        </g>
        <g>
            <path d="M44.517 259.17c-1.274.479-2.652.74-4.093.74-6.423 0-11.63-5.206-11.63-11.629 0-1.083.15-2.133.427-3.128l5.868-3.813c.786 6.415 6.141 11.416 12.711 11.65l-3.283 6.18z" fill="#F7D02E"/>
            <path d="M43.823 259.136c-4.829 1.512-10.2-.962-12.683-5.279a11.686 11.686 0 0 1-1.45-7.267c.047-.365.2-.756.202-1.12-.003.444.102-.299.025-.374.105-.106.33-.202.439-.273l1.834-1.192 2.21-1.435c1.103 6.137 6.327 10.66 12.536 11.079l-3.113 5.86m4.5-6.46c-6.37-.273-11.616-5.271-12.431-11.55-.044-.34-1.267.11-1.413.205l-3.397 2.206-2.016 1.31c-.138.09-.305.171-.43.28-.374.323-.4.931-.48 1.414-.892 5.334 2.101 10.73 7.111 12.778 2.98 1.219 6.3 1.136 9.315.088.272-.062.614-.173.725-.382l3.283-6.18c.082-.154-.192-.165-.266-.168" fill="#000"/>
        </g>
    </g>
</svg>
