<svg width="20" height="20" viewBox="0 0 20 20" xmlns="http://www.w3.org/2000/svg" xmlns:xlink="http://www.w3.org/1999/xlink">
    <defs>
        <filter x="-18.5%" y="-6.7%" width="137%" height="113.4%" filterUnits="objectBoundingBox" id="qn8q538e2c">
            <feGaussianBlur stdDeviation=".5" in="SourceAlpha" result="shadowBlurInner1"/>
            <feOffset dx="1" dy="1" in="shadowBlurInner1" result="shadowOffsetInner1"/>
            <feComposite in="shadowOffsetInner1" in2="SourceAlpha" operator="arithmetic" k2="-1" k3="1" result="shadowInnerInner1"/>
            <feColorMatrix values="0 0 0 0 0.939538872 0 0 0 0 0.941880816 0 0 0 0 1 0 0 0 0.625327797 0" in="shadowInnerInner1"/>
        </filter>
        <filter x="-18.5%" y="-6.7%" width="137%" height="113.4%" filterUnits="objectBoundingBox" id="bvnkfh566e">
            <feGaussianBlur stdDeviation=".5" in="SourceAlpha" result="shadowBlurInner1"/>
            <feOffset dx="1" dy="1" in="shadowBlurInner1" result="shadowOffsetInner1"/>
            <feComposite in="shadowOffsetInner1" in2="SourceAlpha" operator="arithmetic" k2="-1" k3="1" result="shadowInnerInner1"/>
            <feColorMatrix values="0 0 0 0 0.939538872 0 0 0 0 0.941880816 0 0 0 0 1 0 0 0 0.625327797 0" in="shadowInnerInner1"/>
        </filter>
        <filter x="-18.5%" y="-6.7%" width="137%" height="113.4%" filterUnits="objectBoundingBox" id="7jw15aknkg">
            <feGaussianBlur stdDeviation=".5" in="SourceAlpha" result="shadowBlurInner1"/>
            <feOffset dx="1" dy="1" in="shadowBlurInner1" result="shadowOffsetInner1"/>
            <feComposite in="shadowOffsetInner1" in2="SourceAlpha" operator="arithmetic" k2="-1" k3="1" result="shadowInnerInner1"/>
            <feColorMatrix values="0 0 0 0 0.939538872 0 0 0 0 0.941880816 0 0 0 0 1 0 0 0 0.625327797 0" in="shadowInnerInner1"/>
        </filter>
        <filter x="-5.6%" y="-53.3%" width="111.1%" height="206.6%" filterUnits="objectBoundingBox" id="ewzjno948j">
            <feGaussianBlur stdDeviation=".5" in="SourceAlpha" result="shadowBlurInner1"/>
            <feOffset dx="1" dy="1" in="shadowBlurInner1" result="shadowOffsetInner1"/>
            <feComposite in="shadowOffsetInner1" in2="SourceAlpha" operator="arithmetic" k2="-1" k3="1" result="shadowInnerInner1"/>
            <feColorMatrix values="0 0 0 0 0.946646341 0 0 0 0 0.998959394 0 0 0 0 1 0 0 0 0.5 0" in="shadowInnerInner1"/>
        </filter>
        <path d="M.6 14.927c-.331 0-.6-.418-.6-.933V.933C0 .418.269 0 .6 0h4.2c.331 0 .6.418.6.933v13.06c0 .516-.269.934-.6.934H.6z" id="sv2s3xuwqb"/>
        <path d="M6.9 14.927c-.331 0-.6-.418-.6-.933V.933C6.3.418 6.569 0 6.9 0h4.2c.331 0 .6.418.6.933v13.06c0 .516-.269.934-.6.934H6.9z" id="h6avsqfpad"/>
        <path d="M13.2 14.927c-.331 0-.6-.418-.6-.933V.933c0-.515.269-.933.6-.933h4.2c.331 0 .6.418.6.933v13.06c0 .516-.269.934-.6.934h-4.2z" id="yplp5d37uf"/>
        <path d="M0 16.721c0-.33.269-.597.6-.597h16.8c.331 0 .6.268.6.597v.682c0 .33-.269.597-.6.597H.6a.599.599 0 0 1-.6-.597v-.682z" id="4oglfvqlfi"/>
        <linearGradient x1="50%" y1="0%" x2="57.65%" y2="108.035%" id="ief9c00sia">
            <stop stop-color="#002E97" offset="0%"/>
            <stop stop-color="#12F5FF" offset="100%"/>
        </linearGradient>
        <linearGradient x1="36.168%" y1="50.543%" x2="44.222%" y2="53.511%" id="wr1d9mh4rh">
            <stop stop-color="#1654AB" offset="0%"/>
            <stop stop-color="#00CBFF" offset="75.47%"/>
            <stop stop-color="#00BCFF" offset="99.964%"/>
        </linearGradient>
    </defs>
    <g fill="none" fill-rule="evenodd">
        <g transform="translate(.667 .62)">
            <use fill="url(#ief9c00sia)" xlink:href="#sv2s3xuwqb"/>
            <use fill="#000" filter="url(#qn8q538e2c)" xlink:href="#sv2s3xuwqb"/>
        </g>
        <g transform="translate(.667 .62)">
            <use fill="url(#ief9c00sia)" xlink:href="#h6avsqfpad"/>
            <use fill="#000" filter="url(#bvnkfh566e)" xlink:href="#h6avsqfpad"/>
        </g>
        <g transform="translate(.667 .62)">
            <use fill="url(#ief9c00sia)" xlink:href="#yplp5d37uf"/>
            <use fill="#000" filter="url(#7jw15aknkg)" xlink:href="#yplp5d37uf"/>
        </g>
        <g transform="translate(.667 .62)">
            <use fill="url(#wr1d9mh4rh)" xlink:href="#4oglfvqlfi"/>
            <use fill="#000" filter="url(#ewzjno948j)" xlink:href="#4oglfvqlfi"/>
        </g>
    </g>
</svg>
