<svg width="20" height="20" viewBox="0 0 20 20" xmlns="http://www.w3.org/2000/svg" xmlns:xlink="http://www.w3.org/1999/xlink">
    <defs>
        <filter x="-11.3%" y="-9%" width="122.7%" height="118%" filterUnits="objectBoundingBox" id="bb2csvclxc">
            <feGaussianBlur stdDeviation="1" in="SourceAlpha" result="shadowBlurInner1"/>
            <feOffset dx="1.6" dy="1" in="shadowBlurInner1" result="shadowOffsetInner1"/>
            <feComposite in="shadowOffsetInner1" in2="SourceAlpha" operator="arithmetic" k2="-1" k3="1" result="shadowInnerInner1"/>
            <feColorMatrix values="0 0 0 0 1 0 0 0 0 0.946024762 0 0 0 0 0.827283013 0 0 0 0.575888467 0" in="shadowInnerInner1"/>
        </filter>
        <filter x="-75.6%" y="-48.6%" width="251.1%" height="197.1%" filterUnits="objectBoundingBox" id="miy47ft3xd">
            <feGaussianBlur in="SourceGraphic"/>
        </filter>
        <filter x="-113.3%" y="-72.9%" width="326.7%" height="245.7%" filterUnits="objectBoundingBox" id="qml2uo48ne">
            <feOffset in="SourceAlpha" result="shadowOffsetOuter1"/>
            <feGaussianBlur stdDeviation="2" in="shadowOffsetOuter1" result="shadowBlurOuter1"/>
            <feColorMatrix values="0 0 0 0 0.839703104 0 0 0 0 0 0 0 0 0 0.0707398484 0 0 0 0.650930125 0" in="shadowBlurOuter1"/>
        </filter>
        <filter x="-92.6%" y="-59.5%" width="285.1%" height="219%" filterUnits="objectBoundingBox" id="q2l010qj5h">
            <feGaussianBlur stdDeviation=".2" in="SourceAlpha" result="shadowBlurInner1"/>
            <feOffset dx="-1.4" in="shadowBlurInner1" result="shadowOffsetInner1"/>
            <feComposite in="shadowOffsetInner1" in2="SourceAlpha" operator="arithmetic" k2="-1" k3="1" result="shadowInnerInner1"/>
            <feColorMatrix values="0 0 0 0 1 0 0 0 0 0.953118633 0 0 0 0 0.805203173 0 0 0 0.665117597 0" in="shadowInnerInner1"/>
        </filter>
        <linearGradient x1="32.258%" y1="24.462%" x2="69.747%" y2="97.308%" id="bg0av2rrqa">
            <stop stop-color="#FF0FC6" offset="0%"/>
            <stop stop-color="#FF2A0A" offset="48.788%"/>
            <stop stop-color="#FFF400" offset="100%"/>
        </linearGradient>
        <linearGradient x1="59.112%" y1="12.931%" x2="36.435%" y2="94.663%" id="x79r8djzcg">
            <stop stop-color="#FF13A7" offset="0%"/>
            <stop stop-color="#FFD901" offset="100%"/>
        </linearGradient>
        <path d="M6.61 0a15.72 15.72 0 0 1 3.27 4.16c.838 1.536.992 3.927.895 5.123-.037.455-.084.872-.14 1.252l-.03.012c.312-.108 1.511-1.04 1.996-1.773.537-.81.725-1.67.564-2.575 1.758 1.724 2.66 3.66 2.708 5.81.006.057.01.118.01.182 0 4.313-3.555 7.809-7.94 7.809C3.56 20 .006 16.504.006 12.19c0-.03 0-.061.002-.091l.006.108a7.306 7.306 0 0 1 .211-2.244c.524-2.04 2.067-3.431 3.994-5.802C5.502 2.58 6.299 1.193 6.61 0z" id="x289zsu67b"/>
        <path d="M4.602 2.772 3.838.456C3.83.43 3.813.416 3.803.394L3.79.37a.609.609 0 0 0-.308-.303.598.598 0 0 0-.644.058.531.531 0 0 0-.047.03c-.01.01-.021.01-.031.02-.912.882-1.612 1.979-2.173 3.104C.023 4.414-.27 5.707.337 6.885c.587 1.142 1.97 1.596 3.188 1.221 1.378-.424 1.936-1.82 1.726-3.138-.119-.75-.413-1.476-.65-2.196z" id="1fwtp6129f"/>
    </defs>
    <g fill="none" fill-rule="evenodd">
        <g transform="translate(2.353)">
            <use fill="url(#bg0av2rrqa)" xlink:href="#x289zsu67b"/>
            <use fill="#000" filter="url(#bb2csvclxc)" xlink:href="#x289zsu67b"/>
        </g>
        <g transform="matrix(-1 0 0 1 12.965 9.475)" filter="url(#miy47ft3xd)">
            <use fill="#000" filter="url(#qml2uo48ne)" xlink:href="#1fwtp6129f"/>
            <use fill="url(#x79r8djzcg)" xlink:href="#1fwtp6129f"/>
            <use fill="#000" filter="url(#q2l010qj5h)" xlink:href="#1fwtp6129f"/>
        </g>
    </g>
</svg>
